REM MD5 8611b48401419d82b01a187785400757
FILE "Super Hero Sakusen (Japan).bin" BINARY
  TRACK 01 MODE2/2352
    INDEX 01 00:00:00
  TRACK 02 AUDIO
    INDEX 00 64:26:33
    INDEX 01 64:28:33
  TRACK 03 AUDIO
    INDEX 00 65:08:67
    INDEX 01 65:10:67
  TRACK 04 AUDIO
    INDEX 00 65:53:30
    INDEX 01 65:55:30
REM LEADOUT 68:53:55
